<mxfile host="app.diagrams.net" modified="2023-10-14T21:05:12.919Z" agent="Mozilla/5.0 (Windows NT 10.0; Win64; x64) AppleWebKit/537.36 (KHTML, like Gecko) Chrome/116.0.0.0 Safari/537.36 OPR/102.0.0.0 (Edition Yx GX)" version="22.0.4" etag="3LGfBH-_rxbaOZbjOM6k" type="device">
  <diagram id="9gibMVF5n3SnZM_rc_H8" name="Страница — 1">
    <mxGraphModel dx="4143" dy="2485" grid="1" gridSize="10" guides="1" tooltips="1" connect="1" arrows="1" fold="1" page="0" pageScale="1" pageWidth="827" pageHeight="1169" background="none" math="0" shadow="0">
      <root>
        <mxCell id="0" />
        <mxCell id="1" parent="0" />
        <mxCell id="node23" value="&lt;p style=&quot;margin:0px;margin-top:4px;text-align:center;&quot;&gt;&lt;b style=&quot;border-color: var(--border-color);&quot;&gt;&amp;lt;&amp;lt;utility&amp;gt;&amp;gt;&lt;/b&gt;&lt;b&gt;&lt;br&gt;App&lt;/b&gt;&lt;/p&gt;&lt;hr size=&quot;1&quot;&gt;&lt;p style=&quot;margin:0 0 0 4px;line-height:1.6;&quot;&gt; __construct(): &lt;/p&gt;&lt;hr size=&quot;1&quot;&gt;&lt;p style=&quot;margin:0 0 0 4px;line-height:1.6;&quot;&gt;+ app:&amp;nbsp;Registry&lt;/p&gt;&lt;hr size=&quot;1&quot;&gt;+&amp;nbsp;&lt;span style=&quot;background-color: initial;&quot;&gt;getParams(): void&lt;/span&gt;" style="verticalAlign=top;align=left;overflow=fill;fontSize=14;fontFamily=Helvetica;html=1;rounded=0;shadow=0;comic=0;labelBackgroundColor=none;strokeWidth=1;" parent="1" vertex="1">
          <mxGeometry x="-1376" y="-438.75" width="169" height="157" as="geometry" />
        </mxCell>
        <mxCell id="node18" value="&lt;p style=&quot;margin:0px;margin-top:4px;text-align:center;&quot;&gt;&lt;b&gt;AppController&lt;/b&gt;&lt;/p&gt;&lt;hr size=&quot;1&quot;/&gt;&lt;p style=&quot;margin:0 0 0 4px;line-height:1.6;&quot;&gt; __construct(route): &lt;/p&gt;" style="verticalAlign=top;align=left;overflow=fill;fontSize=14;fontFamily=Helvetica;html=1;rounded=0;shadow=0;comic=0;labelBackgroundColor=none;strokeWidth=1;" parent="1" vertex="1">
          <mxGeometry x="-642" y="-71" width="214" height="64" as="geometry" />
        </mxCell>
        <mxCell id="node14" value="&lt;p style=&quot;margin:0px;margin-top:4px;text-align:center;&quot;&gt;&lt;b&gt;AppModel&lt;/b&gt;&lt;/p&gt;&lt;hr size=&quot;1&quot;&gt;&lt;p style=&quot;margin:0 0 0 4px;line-height:1.6;&quot;&gt;+ &lt;u&gt;strToUrl&lt;/u&gt;(str): string&lt;br&gt;+ &lt;u&gt;rusToTranslit&lt;/u&gt;(string): string&lt;br&gt;+ &lt;u&gt;createSlug&lt;/u&gt;(table, field, str, id): string&lt;/p&gt;" style="verticalAlign=top;align=left;overflow=fill;fontSize=14;fontFamily=Helvetica;html=1;rounded=0;shadow=0;comic=0;labelBackgroundColor=none;strokeWidth=1;" parent="1" vertex="1">
          <mxGeometry x="-704" y="-817.25" width="333" height="118" as="geometry" />
        </mxCell>
        <mxCell id="node22" value="&lt;p style=&quot;margin:0px;margin-top:4px;text-align:center;&quot;&gt;&lt;b&gt;Blog&lt;/b&gt;&lt;/p&gt;&lt;hr size=&quot;1&quot;/&gt;&lt;p style=&quot;margin:0 0 0 4px;line-height:1.6;&quot;&gt; getPopularBlogs(lang): &lt;br/&gt; getBlog(lang, slug): &lt;br/&gt; getAllBlogs(lang): &lt;br/&gt; getResponseByBlog(id): &lt;/p&gt;" style="verticalAlign=top;align=left;overflow=fill;fontSize=14;fontFamily=Helvetica;html=1;rounded=0;shadow=0;comic=0;labelBackgroundColor=none;strokeWidth=1;" parent="1" vertex="1">
          <mxGeometry x="-178" y="-1026" width="225" height="145" as="geometry" />
        </mxCell>
        <mxCell id="node7" value="&lt;p style=&quot;margin:0px;margin-top:4px;text-align:center;&quot;&gt;&lt;b&gt;BlogController&lt;/b&gt;&lt;/p&gt;&lt;hr size=&quot;1&quot;/&gt;&lt;p style=&quot;margin:0 0 0 4px;line-height:1.6;&quot;&gt; indexAction(): &lt;br/&gt; viewAction(): &lt;/p&gt;" style="verticalAlign=top;align=left;overflow=fill;fontSize=14;fontFamily=Helvetica;html=1;rounded=0;shadow=0;comic=0;labelBackgroundColor=none;strokeWidth=1;" parent="1" vertex="1">
          <mxGeometry x="-520" y="151" width="190" height="91" as="geometry" />
        </mxCell>
        <mxCell id="node4" value="&lt;p style=&quot;margin:0px;margin-top:4px;text-align:center;&quot;&gt;&lt;b&gt;Cache&lt;/b&gt;&lt;/p&gt;&lt;hr size=&quot;1&quot;&gt;&lt;p style=&quot;margin:0 0 0 4px;line-height:1.6;&quot;&gt;+ deleteCache(key): void&lt;br&gt;+ setCache(key, data, seconds):&amp;nbsp;bool&lt;/p&gt;&lt;p style=&quot;margin:0 0 0 4px;line-height:1.6;&quot;&gt;+ getCache(key):&lt;/p&gt;" style="verticalAlign=top;align=left;overflow=fill;fontSize=14;fontFamily=Helvetica;html=1;rounded=0;shadow=0;comic=0;labelBackgroundColor=none;strokeWidth=1;" parent="1" vertex="1">
          <mxGeometry x="-1443.5" y="-1053.25" width="304" height="118" as="geometry" />
        </mxCell>
        <mxCell id="node9" value="&lt;p style=&quot;margin:0px;margin-top:4px;text-align:center;&quot;&gt;&lt;b&gt;Compiler&lt;/b&gt;&lt;/p&gt;&lt;hr size=&quot;1&quot;/&gt;" style="verticalAlign=top;align=left;overflow=fill;fontSize=14;fontFamily=Helvetica;html=1;rounded=0;shadow=0;comic=0;labelBackgroundColor=none;strokeWidth=1;" parent="1" vertex="1">
          <mxGeometry x="-727" y="-976" width="122" height="33" as="geometry" />
        </mxCell>
        <mxCell id="node1" value="&lt;p style=&quot;margin:0px;margin-top:4px;text-align:center;&quot;&gt;&lt;b&gt;CompilerController&lt;/b&gt;&lt;/p&gt;&lt;hr size=&quot;1&quot;/&gt;&lt;p style=&quot;margin:0 0 0 4px;line-height:1.6;&quot;&gt; indexAction(): &lt;/p&gt;" style="verticalAlign=top;align=left;overflow=fill;fontSize=14;fontFamily=Helvetica;html=1;rounded=0;shadow=0;comic=0;labelBackgroundColor=none;strokeWidth=1;" parent="1" vertex="1">
          <mxGeometry x="-1216" y="163" width="234" height="64" as="geometry" />
        </mxCell>
        <mxCell id="node16" value="&lt;p style=&quot;margin:0px;margin-top:4px;text-align:center;&quot;&gt;&lt;b&gt;Controller&lt;/b&gt;&lt;/p&gt;&lt;hr size=&quot;1&quot;&gt;&lt;p style=&quot;margin:0 0 0 4px;line-height:1.6;&quot;&gt; __construct(route): &lt;/p&gt;&lt;hr size=&quot;1&quot;&gt;&lt;p style=&quot;margin:0 0 0 4px;line-height:1.6;&quot;&gt;+ route[*]: &lt;br&gt;+ data[*]:&lt;/p&gt;&lt;p style=&quot;margin:0 0 0 4px;line-height:1.6;&quot;&gt;+ meta[3]: &lt;br&gt;+ model: Model&lt;/p&gt;&lt;hr size=&quot;1&quot;&gt;&lt;p style=&quot;margin:0 0 0 4px;line-height:1.6;&quot;&gt;+ setMeta(title, description, keywords): void&lt;/p&gt;&lt;p style=&quot;margin:0 0 0 4px;line-height:1.6;&quot;&gt;+ getModel(): void&lt;br&gt;+ setData(data): void&lt;br&gt;+ isAjax(): void&lt;/p&gt;" style="verticalAlign=top;align=left;overflow=fill;fontSize=14;fontFamily=Helvetica;html=1;rounded=0;shadow=0;comic=0;labelBackgroundColor=none;strokeWidth=1;" parent="1" vertex="1">
          <mxGeometry x="-727" y="-370" width="385" height="270" as="geometry" />
        </mxCell>
        <mxCell id="node0" value="&lt;p style=&quot;margin:0px;margin-top:4px;text-align:center;&quot;&gt;&lt;b&gt;Course&lt;/b&gt;&lt;/p&gt;&lt;hr size=&quot;1&quot;/&gt;&lt;p style=&quot;margin:0 0 0 4px;line-height:1.6;&quot;&gt; getFinishedCourse(lang): &lt;/p&gt;" style="verticalAlign=top;align=left;overflow=fill;fontSize=14;fontFamily=Helvetica;html=1;rounded=0;shadow=0;comic=0;labelBackgroundColor=none;strokeWidth=1;" parent="1" vertex="1">
          <mxGeometry x="-995" y="-985.5" width="243" height="64" as="geometry" />
        </mxCell>
        <mxCell id="node24" value="&lt;p style=&quot;margin:0px;margin-top:4px;text-align:center;&quot;&gt;&lt;b&gt;CourseController&lt;/b&gt;&lt;/p&gt;&lt;hr size=&quot;1&quot;/&gt;&lt;p style=&quot;margin:0 0 0 4px;line-height:1.6;&quot;&gt; indexAction(): &lt;/p&gt;" style="verticalAlign=top;align=left;overflow=fill;fontSize=14;fontFamily=Helvetica;html=1;rounded=0;shadow=0;comic=0;labelBackgroundColor=none;strokeWidth=1;" parent="1" vertex="1">
          <mxGeometry x="-752" y="163" width="212" height="64" as="geometry" />
        </mxCell>
        <mxCell id="node5" value="&lt;p style=&quot;margin:0px;margin-top:4px;text-align:center;&quot;&gt;&lt;b style=&quot;background-color: initial;&quot;&gt;DataBase&lt;/b&gt;&lt;/p&gt;&lt;hr size=&quot;1&quot;&gt;&lt;p style=&quot;margin:0 0 0 4px;line-height:1.6;&quot;&gt; __construct(): &lt;/p&gt;&lt;hr size=&quot;1&quot;&gt;&lt;p style=&quot;margin:0 0 0 4px;line-height:1.6;&quot;&gt;+ &lt;u&gt;dataBase[&lt;/u&gt;*&lt;u&gt;]&lt;/u&gt;: &lt;/p&gt;&lt;hr size=&quot;1&quot;&gt;&lt;p style=&quot;margin:0 0 0 4px;line-height:1.6;&quot;&gt;+ &lt;u&gt;run(dataBase)&lt;/u&gt;: void&lt;/p&gt;" style="verticalAlign=top;align=left;overflow=fill;fontSize=14;fontFamily=Helvetica;html=1;rounded=0;shadow=0;comic=0;labelBackgroundColor=none;strokeWidth=1;" parent="1" vertex="1">
          <mxGeometry x="-1157.5" y="-893.25" width="169" height="150" as="geometry" />
        </mxCell>
        <mxCell id="node20" value="&lt;p style=&quot;margin:0px;margin-top:4px;text-align:center;&quot;&gt;&lt;b&gt;ErrorHandler&lt;/b&gt;&lt;/p&gt;&lt;hr size=&quot;1&quot;&gt;&lt;p style=&quot;margin:0 0 0 4px;line-height:1.6;&quot;&gt; __construct(): &lt;/p&gt;&lt;hr size=&quot;1&quot;&gt;&amp;nbsp;#&amp;nbsp;&lt;span style=&quot;background-color: initial;&quot;&gt;displayError(errnum, errstr, errfile, errline, response):&lt;/span&gt;&lt;br&gt;&lt;p style=&quot;margin:0 0 0 4px;line-height:1.6;&quot;&gt;+ exceptionHandler(e): &lt;br&gt;+ errorHandler(errno, errstr, errfile, errline): &lt;br&gt;+ fatalErrorHandler(): &lt;br&gt;# logError(message, file, line): &lt;/p&gt;" style="verticalAlign=top;align=left;overflow=fill;fontSize=14;fontFamily=Helvetica;html=1;rounded=0;shadow=0;comic=0;labelBackgroundColor=none;strokeWidth=1;" parent="1" vertex="1">
          <mxGeometry x="-1990" y="-465" width="556" height="209.5" as="geometry" />
        </mxCell>
        <mxCell id="node10" value="&lt;p style=&quot;margin:0px;margin-top:4px;text-align:center;&quot;&gt;&lt;b style=&quot;border-color: var(--border-color);&quot;&gt;&amp;lt;&amp;lt;utility&amp;gt;&amp;gt;&lt;/b&gt;&lt;b&gt;&lt;br&gt;Language&lt;/b&gt;&lt;/p&gt;&lt;hr size=&quot;1&quot;&gt;&lt;p style=&quot;margin:0 0 0 4px;line-height:1.6;&quot;&gt; __construct(): &lt;/p&gt;&lt;hr size=&quot;1&quot;&gt;&lt;p style=&quot;margin:0 0 0 4px;line-height:1.6;&quot;&gt;+ &lt;u&gt;getLanguage&lt;/u&gt;(languages): &lt;br&gt;+ &lt;u&gt;getLanguages&lt;/u&gt;(): &lt;/p&gt;" style="verticalAlign=top;align=left;overflow=fill;fontSize=14;fontFamily=Helvetica;html=1;rounded=0;shadow=0;comic=0;labelBackgroundColor=none;strokeWidth=1;" parent="1" vertex="1">
          <mxGeometry x="-280" y="-109.75" width="234" height="141.5" as="geometry" />
        </mxCell>
        <mxCell id="node19" value="&lt;p style=&quot;margin:0px;margin-top:4px;text-align:center;&quot;&gt;&lt;b&gt;&amp;lt;&amp;lt;utility&amp;gt;&amp;gt;&lt;br&gt;CoreLanguage&lt;/b&gt;&lt;/p&gt;&lt;hr size=&quot;1&quot;&gt;&lt;p style=&quot;margin:0 0 0 4px;line-height:1.6;&quot;&gt;+ &lt;u&gt;langData&lt;/u&gt;[*]: &lt;br&gt;+ &lt;u&gt;langLayout&lt;/u&gt;[*]: &lt;br&gt;+ &lt;u&gt;langView&lt;/u&gt;[*]: &lt;/p&gt;&lt;hr size=&quot;1&quot;&gt;&lt;p style=&quot;margin:0 0 0 4px;line-height:1.6;&quot;&gt;+ &lt;u&gt;getWords&lt;/u&gt;(key):&lt;br&gt;+ &lt;u&gt;loadWords&lt;/u&gt;(lang, route): void&lt;/p&gt;" style="verticalAlign=top;align=left;overflow=fill;fontSize=14;fontFamily=Helvetica;html=1;rounded=0;shadow=0;comic=0;labelBackgroundColor=none;strokeWidth=1;" parent="1" vertex="1">
          <mxGeometry x="-1040" y="-130" width="250" height="182" as="geometry" />
        </mxCell>
        <mxCell id="node8" value="&lt;p style=&quot;margin:0px;margin-top:4px;text-align:center;&quot;&gt;&lt;b&gt;LanguageController&lt;/b&gt;&lt;/p&gt;&lt;hr size=&quot;1&quot;/&gt;&lt;p style=&quot;margin:0 0 0 4px;line-height:1.6;&quot;&gt; changeAction(): &lt;/p&gt;" style="verticalAlign=top;align=left;overflow=fill;fontSize=14;fontFamily=Helvetica;html=1;rounded=0;shadow=0;comic=0;labelBackgroundColor=none;strokeWidth=1;" parent="1" vertex="1">
          <mxGeometry x="-310" y="163" width="234" height="64" as="geometry" />
        </mxCell>
        <mxCell id="node11" value="&lt;p style=&quot;margin:0px;margin-top:4px;text-align:center;&quot;&gt;&lt;b&gt;MainController&lt;/b&gt;&lt;/p&gt;&lt;hr size=&quot;1&quot;/&gt;&lt;p style=&quot;margin:0 0 0 4px;line-height:1.6;&quot;&gt; indexAction(): &lt;/p&gt;" style="verticalAlign=top;align=left;overflow=fill;fontSize=14;fontFamily=Helvetica;html=1;rounded=0;shadow=0;comic=0;labelBackgroundColor=none;strokeWidth=1;" parent="1" vertex="1">
          <mxGeometry x="-962" y="163" width="190" height="64" as="geometry" />
        </mxCell>
        <mxCell id="node2" value="&lt;p style=&quot;margin:0px;margin-top:4px;text-align:center;&quot;&gt;&lt;b&gt;Model&lt;/b&gt;&lt;/p&gt;&lt;hr size=&quot;1&quot;&gt;&lt;p style=&quot;margin:0 0 0 4px;line-height:1.6;&quot;&gt; __construct(): &lt;/p&gt;&lt;hr size=&quot;1&quot;&gt;&lt;p style=&quot;margin:0 0 0 4px;line-height:1.6;&quot;&gt;+ attributes[*]: &lt;br&gt;+ rules[*]: &lt;br&gt;+ errors[*]: &lt;br&gt;+ labels[*]: &lt;/p&gt;&lt;hr size=&quot;1&quot;&gt;&lt;p style=&quot;margin:0 0 0 4px;line-height:1.6;&quot;&gt;+ load(post): void&lt;br&gt;+ save(table):&lt;br&gt;+ update(table, id):&lt;/p&gt;" style="verticalAlign=top;align=left;overflow=fill;fontSize=14;fontFamily=Helvetica;html=1;rounded=0;shadow=0;comic=0;labelBackgroundColor=none;strokeWidth=1;" parent="1" vertex="1">
          <mxGeometry x="-640" y="-660" width="205" height="250" as="geometry" />
        </mxCell>
        <mxCell id="node6" value="&lt;p style=&quot;margin:0px;margin-top:4px;text-align:center;&quot;&gt;&lt;b&gt;Pagination&lt;/b&gt;&lt;/p&gt;&lt;hr size=&quot;1&quot;/&gt;&lt;p style=&quot;margin:0 0 0 4px;line-height:1.6;&quot;&gt; __construct(page, perpage, total): &lt;/p&gt;&lt;hr size=&quot;1&quot;/&gt;&lt;p style=&quot;margin:0 0 0 4px;line-height:1.6;&quot;&gt; perpage: &lt;br/&gt; total: &lt;br/&gt; countPages: &lt;br/&gt; currentPage: &lt;br/&gt; uri: &lt;/p&gt;&lt;hr size=&quot;1&quot;/&gt;&lt;p style=&quot;margin:0 0 0 4px;line-height:1.6;&quot;&gt; __toString(): &lt;br/&gt; getHtml(): &lt;br/&gt; getCountPages(): &lt;br/&gt; getCurrentPage(page): &lt;br/&gt; getLink(page): &lt;br/&gt; getParams(): &lt;br/&gt; getStart(): &lt;/p&gt;" style="verticalAlign=top;align=left;overflow=fill;fontSize=14;fontFamily=Helvetica;html=1;rounded=0;shadow=0;comic=0;labelBackgroundColor=none;strokeWidth=1;" parent="1" vertex="1">
          <mxGeometry x="-1589" y="-134" width="349" height="361" as="geometry" />
        </mxCell>
        <mxCell id="node21" value="&lt;p style=&quot;margin:0px;margin-top:4px;text-align:center;&quot;&gt;&lt;b&gt;Registry&lt;/b&gt;&lt;/p&gt;&lt;hr size=&quot;1&quot;&gt;&lt;p style=&quot;margin:0 0 0 4px;line-height:1.6;&quot;&gt;#&amp;nbsp;&lt;u&gt;properties[&lt;/u&gt;*&lt;u&gt;]&lt;/u&gt;: &lt;/p&gt;&lt;hr size=&quot;1&quot;&gt;&lt;p style=&quot;margin:0 0 0 4px;line-height:1.6;&quot;&gt;+ getProperties():&lt;br&gt;+&amp;nbsp;setProperty(name, value):&amp;nbsp;void&lt;br&gt;+&amp;nbsp;getProperty(name): &lt;/p&gt;" style="verticalAlign=top;align=left;overflow=fill;fontSize=14;fontFamily=Helvetica;html=1;rounded=0;shadow=0;comic=0;labelBackgroundColor=none;strokeWidth=1;" parent="1" vertex="1">
          <mxGeometry x="-1425.5" y="-699.25" width="268" height="146" as="geometry" />
        </mxCell>
        <mxCell id="node3" value="&lt;p style=&quot;margin:0px;margin-top:4px;text-align:center;&quot;&gt;&lt;b style=&quot;border-color: var(--border-color);&quot;&gt;&amp;lt;&amp;lt;utility&amp;gt;&amp;gt;&lt;/b&gt;&lt;b&gt;&lt;br&gt;Router&lt;/b&gt;&lt;/p&gt;&lt;hr size=&quot;1&quot;&gt;&lt;p style=&quot;margin:0 0 0 4px;line-height:1.6;&quot;&gt;# &lt;u&gt;routes&lt;/u&gt;[*]: &lt;br&gt;# &lt;u&gt;route&lt;/u&gt;[*]: &lt;/p&gt;&lt;hr size=&quot;1&quot;&gt;&lt;p style=&quot;margin:0 0 0 4px;line-height:1.6;&quot;&gt;+ &lt;u&gt;matchRoute&lt;/u&gt;(url): bool&lt;br&gt;+ &lt;u&gt;dispatch&lt;/u&gt;(url): &lt;br&gt;# &lt;u&gt;lowerCamelCase&lt;/u&gt;(name): string&lt;br&gt;# &lt;u&gt;removeQueryString&lt;/u&gt;(url): string&lt;br&gt;+ &lt;u&gt;getRoute&lt;/u&gt;(): &lt;br&gt;+ &lt;u&gt;add&lt;/u&gt;(reqexp, route): void&lt;br&gt;&lt;/p&gt;&lt;div style=&quot;&quot;&gt;&lt;span style=&quot;background-color: initial;&quot;&gt;# &lt;u&gt;upperCamelCase&lt;/u&gt;(name): string&lt;/span&gt;&lt;/div&gt;+ &lt;u&gt;getRoutes&lt;/u&gt;(): &lt;p&gt;&lt;/p&gt;" style="verticalAlign=top;align=left;overflow=fill;fontSize=14;fontFamily=Helvetica;html=1;rounded=0;shadow=0;comic=0;labelBackgroundColor=none;strokeWidth=1;" parent="1" vertex="1">
          <mxGeometry x="-1160" y="-500.75" width="250" height="289.5" as="geometry" />
        </mxCell>
        <mxCell id="node13" value="&lt;p style=&quot;margin:0px;margin-top:4px;text-align:center;&quot;&gt;&lt;b&gt;TSingleton&lt;/b&gt;&lt;/p&gt;&lt;hr size=&quot;1&quot;&gt;&lt;p style=&quot;margin:0 0 0 4px;line-height:1.6;&quot;&gt; __construct(): &lt;/p&gt;&lt;hr size=&quot;1&quot;&gt;&lt;p style=&quot;margin:0 0 0 4px;line-height:1.6;&quot;&gt;- &lt;u&gt;instance&lt;/u&gt;: &lt;/p&gt;&lt;hr size=&quot;1&quot;&gt;&lt;p style=&quot;margin:0 0 0 4px;line-height:1.6;&quot;&gt;+ &lt;u&gt;getInstance(): &lt;/u&gt;&lt;/p&gt;" style="verticalAlign=top;align=left;overflow=fill;fontSize=14;fontFamily=Helvetica;html=1;rounded=0;shadow=0;comic=0;labelBackgroundColor=none;strokeWidth=1;" parent="1" vertex="1">
          <mxGeometry x="-1376" y="-893.25" width="169" height="150" as="geometry" />
        </mxCell>
        <mxCell id="node15" value="&lt;p style=&quot;margin:0px;margin-top:4px;text-align:center;&quot;&gt;&lt;b&gt;User&lt;/b&gt;&lt;/p&gt;&lt;hr size=&quot;1&quot;/&gt;&lt;p style=&quot;margin:0 0 0 4px;line-height:1.6;&quot;&gt; getFilesProject(project, secondaryPath): &lt;br/&gt; getProjectInfoBySlug(slug, username): &lt;br/&gt; getProjectLangsByID(id): &lt;br/&gt; checkAuth(): &lt;br/&gt; login(userParam): &lt;/p&gt;" style="verticalAlign=top;align=left;overflow=fill;fontSize=14;fontFamily=Helvetica;html=1;rounded=0;shadow=0;comic=0;labelBackgroundColor=none;strokeWidth=1;" parent="1" vertex="1">
          <mxGeometry x="-585" y="-1040" width="387" height="159" as="geometry" />
        </mxCell>
        <mxCell id="node12" value="&lt;p style=&quot;margin:0px;margin-top:4px;text-align:center;&quot;&gt;&lt;b&gt;UserController&lt;/b&gt;&lt;/p&gt;&lt;hr size=&quot;1&quot;/&gt;&lt;p style=&quot;margin:0 0 0 4px;line-height:1.6;&quot;&gt; authAction(): &lt;br/&gt; projectListAction(): &lt;br/&gt; projectAction(): &lt;br/&gt; loginAction(): &lt;br/&gt; profileAction(): &lt;/p&gt;" style="verticalAlign=top;align=left;overflow=fill;fontSize=14;fontFamily=Helvetica;html=1;rounded=0;shadow=0;comic=0;labelBackgroundColor=none;strokeWidth=1;" parent="1" vertex="1">
          <mxGeometry x="-56" y="90" width="223" height="159" as="geometry" />
        </mxCell>
        <mxCell id="edge4" value="" style="html=1;rounded=1;edgeStyle=orthogonalEdgeStyle;dashed=0;startArrow=none;endArrow=block;endSize=12;strokeColor=#000000;exitX=0.500;exitY=0.001;exitDx=0;exitDy=0;endFill=0;" parent="1" source="node18" target="node16" edge="1">
          <mxGeometry width="50" height="50" relative="1" as="geometry">
            <Array as="points" />
            <mxPoint x="-535.5" y="-121" as="targetPoint" />
          </mxGeometry>
        </mxCell>
        <mxCell id="edge11" value="" style="html=1;rounded=1;edgeStyle=orthogonalEdgeStyle;dashed=0;startArrow=none;endArrow=block;endSize=12;strokeColor=#000000;exitX=0.5;exitY=1;exitDx=0;exitDy=0;entryX=0.5;entryY=0;entryDx=0;entryDy=0;endFill=0;" parent="1" source="node14" target="node2" edge="1">
          <mxGeometry width="50" height="50" relative="1" as="geometry">
            <Array as="points" />
          </mxGeometry>
        </mxCell>
        <mxCell id="edge14" value="" style="html=1;rounded=1;edgeStyle=orthogonalEdgeStyle;dashed=0;startArrow=none;endArrow=block;endSize=12;strokeColor=#000000;exitX=0.5;exitY=1;exitDx=0;exitDy=0;endFill=0;" parent="1" source="node22" target="node14" edge="1">
          <mxGeometry width="50" height="50" relative="1" as="geometry">
            <Array as="points">
              <mxPoint x="-66" y="-870" />
              <mxPoint x="-537" y="-870" />
            </Array>
            <mxPoint x="-537.0526315789471" y="-775.5" as="targetPoint" />
          </mxGeometry>
        </mxCell>
        <mxCell id="edge9" value="" style="html=1;rounded=1;edgeStyle=orthogonalEdgeStyle;dashed=0;startArrow=none;endArrow=block;endSize=12;strokeColor=#000000;exitX=0.500;exitY=0.000;exitDx=0;exitDy=0;entryX=0.500;entryY=1.001;entryDx=0;entryDy=0;endFill=0;" parent="1" source="node7" target="node18" edge="1">
          <mxGeometry width="50" height="50" relative="1" as="geometry">
            <Array as="points">
              <mxPoint x="-425" y="83" />
              <mxPoint x="-535" y="83" />
            </Array>
          </mxGeometry>
        </mxCell>
        <mxCell id="edge2" value="" style="html=1;rounded=1;edgeStyle=orthogonalEdgeStyle;dashed=1;startArrow=none;endArrow=block;endSize=12;strokeColor=#000000;" parent="1" source="node4" target="node13" edge="1">
          <mxGeometry width="50" height="50" relative="1" as="geometry">
            <Array as="points" />
            <mxPoint x="-1200" y="-533.25" as="targetPoint" />
          </mxGeometry>
        </mxCell>
        <mxCell id="edge0" value="" style="html=1;rounded=1;edgeStyle=orthogonalEdgeStyle;dashed=0;startArrow=none;endArrow=block;endSize=12;strokeColor=#000000;exitX=0.5;exitY=1;exitDx=0;exitDy=0;endFill=0;" parent="1" source="node9" target="node14" edge="1">
          <mxGeometry width="50" height="50" relative="1" as="geometry">
            <Array as="points">
              <mxPoint x="-666" y="-870" />
              <mxPoint x="-537" y="-870" />
            </Array>
            <mxPoint x="-537.0526315789471" y="-775.5" as="targetPoint" />
          </mxGeometry>
        </mxCell>
        <mxCell id="edge5" value="" style="html=1;rounded=1;edgeStyle=orthogonalEdgeStyle;dashed=0;startArrow=none;endArrow=block;endSize=12;strokeColor=#000000;exitX=0.500;exitY=0.001;exitDx=0;exitDy=0;entryX=0.500;entryY=1.001;entryDx=0;entryDy=0;endFill=0;" parent="1" source="node1" target="node18" edge="1">
          <mxGeometry width="50" height="50" relative="1" as="geometry">
            <Array as="points">
              <mxPoint x="-1099" y="83" />
              <mxPoint x="-535" y="83" />
            </Array>
          </mxGeometry>
        </mxCell>
        <mxCell id="edge8" value="" style="html=1;rounded=1;edgeStyle=orthogonalEdgeStyle;dashed=0;startArrow=none;endArrow=block;endSize=12;strokeColor=#000000;exitX=0.5;exitY=1;exitDx=0;exitDy=0;endFill=0;" parent="1" source="node0" target="node14" edge="1">
          <mxGeometry width="50" height="50" relative="1" as="geometry">
            <Array as="points">
              <mxPoint x="-878" y="-921" />
              <mxPoint x="-878" y="-870" />
              <mxPoint x="-537" y="-870" />
            </Array>
            <mxPoint x="-537.0526315789471" y="-775.5" as="targetPoint" />
          </mxGeometry>
        </mxCell>
        <mxCell id="edge6" value="" style="html=1;rounded=1;edgeStyle=orthogonalEdgeStyle;dashed=0;startArrow=none;endArrow=block;endSize=12;strokeColor=#000000;exitX=0.500;exitY=0.001;exitDx=0;exitDy=0;entryX=0.500;entryY=1.001;entryDx=0;entryDy=0;endFill=0;" parent="1" source="node24" target="node18" edge="1">
          <mxGeometry width="50" height="50" relative="1" as="geometry">
            <Array as="points">
              <mxPoint x="-646" y="83" />
              <mxPoint x="-535" y="83" />
            </Array>
          </mxGeometry>
        </mxCell>
        <mxCell id="edge7" value="" style="html=1;rounded=1;edgeStyle=orthogonalEdgeStyle;dashed=1;startArrow=none;endArrow=block;endSize=12;strokeColor=#000000;" parent="1" source="node5" target="node13" edge="1">
          <mxGeometry width="50" height="50" relative="1" as="geometry">
            <Array as="points" />
          </mxGeometry>
        </mxCell>
        <mxCell id="edge10" value="" style="html=1;rounded=1;edgeStyle=orthogonalEdgeStyle;dashed=0;startArrow=none;endArrow=block;endSize=12;strokeColor=#000000;exitX=0.500;exitY=0.001;exitDx=0;exitDy=0;entryX=0.500;entryY=1.001;entryDx=0;entryDy=0;endFill=0;" parent="1" source="node8" target="node18" edge="1">
          <mxGeometry width="50" height="50" relative="1" as="geometry">
            <Array as="points">
              <mxPoint x="-193" y="83" />
              <mxPoint x="-535" y="83" />
            </Array>
          </mxGeometry>
        </mxCell>
        <mxCell id="edge1" value="" style="html=1;rounded=1;edgeStyle=orthogonalEdgeStyle;dashed=0;startArrow=none;endArrow=block;endSize=12;strokeColor=#000000;exitX=0.500;exitY=0.001;exitDx=0;exitDy=0;entryX=0.500;entryY=1.001;entryDx=0;entryDy=0;endFill=0;" parent="1" source="node11" target="node18" edge="1">
          <mxGeometry width="50" height="50" relative="1" as="geometry">
            <Array as="points">
              <mxPoint x="-867" y="83" />
              <mxPoint x="-535" y="83" />
            </Array>
          </mxGeometry>
        </mxCell>
        <mxCell id="edge13" value="" style="html=1;rounded=1;edgeStyle=orthogonalEdgeStyle;dashed=1;startArrow=none;endArrow=block;endSize=12;strokeColor=#000000;" parent="1" source="node21" target="node13" edge="1">
          <mxGeometry width="50" height="50" relative="1" as="geometry">
            <Array as="points" />
            <mxPoint x="-1052.9999999999995" y="39.75" as="sourcePoint" />
            <mxPoint x="-1291" y="118.75" as="targetPoint" />
          </mxGeometry>
        </mxCell>
        <mxCell id="edge3" value="" style="html=1;rounded=1;edgeStyle=orthogonalEdgeStyle;dashed=0;startArrow=none;endArrow=block;endSize=12;strokeColor=#000000;exitX=0.5;exitY=1;exitDx=0;exitDy=0;endFill=0;" parent="1" source="node15" target="node14" edge="1">
          <mxGeometry width="50" height="50" relative="1" as="geometry">
            <Array as="points">
              <mxPoint x="-392" y="-870" />
              <mxPoint x="-537" y="-870" />
            </Array>
            <mxPoint x="-537.0526315789471" y="-775.5" as="targetPoint" />
          </mxGeometry>
        </mxCell>
        <mxCell id="edge12" value="" style="html=1;rounded=1;edgeStyle=orthogonalEdgeStyle;dashed=0;startArrow=none;endArrow=block;endSize=12;strokeColor=#000000;exitX=0.500;exitY=0.000;exitDx=0;exitDy=0;entryX=0.500;entryY=1.001;entryDx=0;entryDy=0;endFill=0;" parent="1" source="node12" target="node18" edge="1">
          <mxGeometry width="50" height="50" relative="1" as="geometry">
            <Array as="points">
              <mxPoint x="55" y="83" />
              <mxPoint x="-535" y="83" />
            </Array>
          </mxGeometry>
        </mxCell>
        <mxCell id="bJ9rMMp9Pk945zRn5mnp-1" value="" style="endArrow=classic;html=1;rounded=0;endSize=12;" edge="1" parent="1" source="node23" target="node3">
          <mxGeometry width="50" height="50" relative="1" as="geometry">
            <mxPoint x="-1144" y="-397.5" as="sourcePoint" />
            <mxPoint x="-1094" y="-447.5" as="targetPoint" />
          </mxGeometry>
        </mxCell>
        <mxCell id="bJ9rMMp9Pk945zRn5mnp-2" value="" style="endArrow=diamondThin;endFill=1;endSize=24;html=1;rounded=0;entryX=1;entryY=0.5;entryDx=0;entryDy=0;exitX=0;exitY=0.5;exitDx=0;exitDy=0;" edge="1" parent="1" source="node16" target="node3">
          <mxGeometry width="160" relative="1" as="geometry">
            <mxPoint x="-540" y="-720" as="sourcePoint" />
            <mxPoint x="-380" y="-720" as="targetPoint" />
          </mxGeometry>
        </mxCell>
        <mxCell id="bJ9rMMp9Pk945zRn5mnp-4" value="" style="endArrow=diamondThin;endFill=1;endSize=24;html=1;rounded=0;exitX=0.5;exitY=1;exitDx=0;exitDy=0;" edge="1" parent="1" source="node2" target="node16">
          <mxGeometry width="160" relative="1" as="geometry">
            <mxPoint x="-752" y="-620" as="sourcePoint" />
            <mxPoint x="-868" y="-620" as="targetPoint" />
          </mxGeometry>
        </mxCell>
        <mxCell id="bJ9rMMp9Pk945zRn5mnp-5" value="" style="endArrow=classic;html=1;rounded=0;endSize=12;" edge="1" parent="1" source="node23" target="node21">
          <mxGeometry width="50" height="50" relative="1" as="geometry">
            <mxPoint x="-1170" y="-203.25" as="sourcePoint" />
            <mxPoint x="-1103" y="-203.25" as="targetPoint" />
          </mxGeometry>
        </mxCell>
        <mxCell id="bJ9rMMp9Pk945zRn5mnp-6" value="" style="endArrow=diamondThin;endFill=1;endSize=24;html=1;rounded=0;" edge="1" parent="1" source="node20" target="node23">
          <mxGeometry width="160" relative="1" as="geometry">
            <mxPoint x="-1564" y="-133.25" as="sourcePoint" />
            <mxPoint x="-1680" y="-133.25" as="targetPoint" />
          </mxGeometry>
        </mxCell>
        <mxCell id="bJ9rMMp9Pk945zRn5mnp-10" value="" style="endArrow=block;endFill=1;html=1;edgeStyle=orthogonalEdgeStyle;align=left;verticalAlign=top;rounded=0;endSize=12;startSize=12;" edge="1" parent="1" source="node18" target="node19">
          <mxGeometry x="-1" relative="1" as="geometry">
            <mxPoint x="-760" y="33" as="sourcePoint" />
            <mxPoint x="-600" y="33" as="targetPoint" />
          </mxGeometry>
        </mxCell>
        <mxCell id="bJ9rMMp9Pk945zRn5mnp-12" value="" style="endArrow=block;endFill=1;html=1;edgeStyle=orthogonalEdgeStyle;align=left;verticalAlign=top;rounded=0;" edge="1" parent="1" source="node18" target="node10">
          <mxGeometry x="-1" relative="1" as="geometry">
            <mxPoint x="-632" y="-29" as="sourcePoint" />
            <mxPoint x="-780" y="-29" as="targetPoint" />
          </mxGeometry>
        </mxCell>
        <mxCell id="bJ9rMMp9Pk945zRn5mnp-15" value="" style="endArrow=block;endFill=1;html=1;edgeStyle=orthogonalEdgeStyle;align=left;verticalAlign=top;rounded=1;endSize=12;startSize=12;" edge="1" parent="1" source="node24" target="node6">
          <mxGeometry x="-1" relative="1" as="geometry">
            <mxPoint x="-850" y="340" as="sourcePoint" />
            <mxPoint x="-1081" y="360" as="targetPoint" />
            <Array as="points">
              <mxPoint x="-640" y="260" />
              <mxPoint x="-1415" y="260" />
            </Array>
          </mxGeometry>
        </mxCell>
        <mxCell id="bJ9rMMp9Pk945zRn5mnp-17" value="" style="endArrow=block;endFill=1;html=1;edgeStyle=orthogonalEdgeStyle;align=left;verticalAlign=top;rounded=1;endSize=12;startSize=12;" edge="1" parent="1" source="node7" target="node6">
          <mxGeometry x="-1" relative="1" as="geometry">
            <mxPoint x="-630" y="237" as="sourcePoint" />
            <mxPoint x="-1240" y="433" as="targetPoint" />
            <Array as="points">
              <mxPoint x="-430" y="260" />
              <mxPoint x="-1415" y="260" />
            </Array>
          </mxGeometry>
        </mxCell>
        <mxCell id="bJ9rMMp9Pk945zRn5mnp-19" value="" style="endArrow=classic;html=1;rounded=0;endSize=12;" edge="1" parent="1" source="node2" target="node5">
          <mxGeometry width="50" height="50" relative="1" as="geometry">
            <mxPoint x="-867.59" y="-645" as="sourcePoint" />
            <mxPoint x="-866.59" y="-760" as="targetPoint" />
          </mxGeometry>
        </mxCell>
      </root>
    </mxGraphModel>
  </diagram>
</mxfile>
